<?xml version="1.0" encoding="UTF-8" standalone="no"?>
<!-- Created with Inkscape (http://www.inkscape.org/) -->

<svg
   version="1.1"
   id="svg1"
   width="3000"
   height="3000"
   viewBox="0 0 3000 3000"
   sodipodi:docname="onlyStraightFace.svg"
   inkscape:version="1.3 (0e150ed6c4, 2023-07-21)"
   xmlns:inkscape="http://www.inkscape.org/namespaces/inkscape"
   xmlns:sodipodi="http://sodipodi.sourceforge.net/DTD/sodipodi-0.dtd"
   xmlns="http://www.w3.org/2000/svg"
   xmlns:svg="http://www.w3.org/2000/svg">
  <defs
     id="defs1">
    <clipPath
       clipPathUnits="userSpaceOnUse"
       id="clipPath3">
      <ellipse
         style="opacity:0.55;fill:#4d4d4d;stroke-width:1.00303"
         id="ellipse3"
         cx="919.75806"
         cy="1459.5835"
         rx="75.665428"
         ry="133.15228" />
    </clipPath>
    <clipPath
       clipPathUnits="userSpaceOnUse"
       id="clipPath3-3">
      <ellipse
         style="opacity:0.55;fill:#4d4d4d;stroke-width:1.00303"
         id="ellipse3-4"
         cx="919.75806"
         cy="1459.5835"
         rx="75.665428"
         ry="133.15228" />
    </clipPath>
  </defs>
  <sodipodi:namedview
     id="namedview1"
     pagecolor="#505050"
     bordercolor="#ffffff"
     borderopacity="1"
     inkscape:showpageshadow="0"
     inkscape:pageopacity="0"
     inkscape:pagecheckerboard="1"
     inkscape:deskcolor="#505050"
     inkscape:zoom="0.19351156"
     inkscape:cx="1291.9125"
     inkscape:cy="1485.6994"
     inkscape:window-width="1920"
     inkscape:window-height="1017"
     inkscape:window-x="-8"
     inkscape:window-y="-8"
     inkscape:window-maximized="1"
     inkscape:current-layer="g1" />
  <g
     inkscape:groupmode="layer"
     inkscape:label="Image"
     id="g1">
    <g
       id="g4"
       transform="matrix(1.461212,0,0,1.494314,-749.11393,2759.8728)">
      <ellipse
         style="fill:#000000;stroke-width:1.01472"
         id="path1"
         cx="1540.1952"
         cy="-842.26556"
         rx="1014.0072"
         ry="977.46649" />
      <ellipse
         style="fill:#b3b3b3;stroke-width:0.955906"
         id="path1-0"
         cx="1545.5687"
         cy="-844.14001"
         rx="962.8501"
         ry="913.52008" />
      <ellipse
         style="fill:#000000;stroke-width:1.08711"
         id="path4-2"
         cx="1808.9136"
         cy="-1099.8647"
         rx="89.524971"
         ry="166.26067" />
      <ellipse
         style="fill:#000000;stroke-width:1.08711"
         id="path4-2-9"
         cx="1242.4629"
         cy="-1103.5881"
         rx="89.524971"
         ry="166.26067" />
      <path
         style="fill:#f9f9f9"
         d="m 1999.8707,-111.32702 25.5786,-12.7892 35.6273,-20.5542 29.6894,-17.8137 31.9732,-22.838 28.7759,-22.838 26.4921,-22.3812 23.7515,-21.9245 17.8136,-19.18389 19.1839,-21.011 20.0975,-22.838 10.0487,-12.3325 4.2768,-1.9197 4.2794,-0.4845 h 3.7143 l 2.9875,1.1304 2.5031,1.6957 3.1491,3.3105 1.4534,2.5031 0.8881,2.7453 0.4038,3.2298 -0.1615,4.2794 -1.5342,3.5528 -4.1179,6.0558 -7.59,8.9627 -10.937,12.8985 -19.8691,23.29479 -11.419,11.419 -15.0731,15.073 -24.4366,23.7516 -23.5232,20.0974 -30.3745,23.7515 -23.0664,16.9001 -29.9178,19.8691 -26.2637,15.7582 -21.6961,11.1907 -22.838,11.419 -15.5298,7.5365 -5.1989,-0.1976 -4.0372,-0.4037 -2.5031,-1.1708 -2.059,-1.736 -1.9378,-1.9783 -1.7764,-2.6242 -1.0901,-2.6241 -0.1211,-2.7454 0.081,-2.826 0.1211,-2.3416 0.6459,-1.6149 1.7361,-3.2298 2.0186,-2.5838 2.3819,-1.6956 4.3602,-2.2609 z"
         id="path9-1" />
      <path
         style="fill:#f9f9f9"
         d="m 1088.463,-1598.0875 8.7204,-3.7143 7.267,-3.2298 4.3602,-2.2608 h 3.8757 l 4.6832,0.8074 3.8758,1.7764 3.8757,4.8447 1.4534,5.1676 v 6.1366 l -1.6149,3.8758 -2.7453,4.0372 -4.3602,2.4223 -4.5217,1.9379 -7.7515,3.3913 -33.9127,16.6334 -15.18,8.0744 -20.9935,11.9502 -19.2172,11.6272 -12.4347,7.913 -16.4719,12.1117 -11.6272,8.0744 -10.4968,8.236 -9.2049,6.4595 -5.6521,4.8447 -15.8259,12.7576 -17.4408,15.503 -17.6023,15.6644 -9.6894,9.8508 -7.1055,7.4285 -5.1676,5.0062 -4.8447,4.6832 -3.5528,3.8757 -9.2049,10.3353 -8.0744,8.8819 -9.6894,11.4657 -6.7825,7.7515 -2.7453,3.7142 -18.4098,24.0619 -13.565,19.0557 -9.8509,14.0496 -6.1366,9.6893 -5.6521,8.5589 -6.7825,11.3043 -11.7887,20.5091 -6.1366,10.4968 -5.6521,11.3042 -5.6521,10.6583 -2.5839,5.3291 -4.9634,3.1043 -3.8825,0.7993 -4.2821,0.2284 -3.597,-0.4568 -2.3409,-1.2561 -2.5693,-1.8841 -1.6557,-2.1125 -1.6558,-2.2838 -1.1419,-2.3409 -0.2854,-3.1402 -0.1142,-2.6264 0.3425,-2.5122 c 0,0 0.6852,-1.7699 0.9136,-2.1125 0.2283,-0.3426 1.8841,-3.9966 1.8841,-3.9966 l 1.827,-4.0538 2.1696,-4.3963 3.3687,-5.9379 2.455,-4.3392 11.8758,-21.4106 7.9362,-12.9035 16.9001,-28.4333 14.8447,-21.2394 13.0177,-18.7271 15.9866,-19.6407 17.8136,-21.6961 17.8137,-20.5542 21.2393,-22.1528 16.215,-15.7583 9.8203,-9.3635 20.7826,-18.2704 18.2704,-15.0731 16.9002,-13.0177 15.9866,-12.3325 15.7582,-11.419 19.4123,-12.5609 16.9001,-10.7339 15.3015,-8.6784 18.042,-10.2771 14.1595,-7.0798 11.8758,-5.9379 9.8203,-4.796 z"
         id="path10-5" />
      <rect
         style="fill:#000000"
         id="rect4"
         width="1238.7333"
         height="47.503044"
         x="913.52008"
         y="-584.65283" />
    </g>
  </g>
</svg>
