<?xml version="1.0" encoding="UTF-8" standalone="no"?>
<!-- Created with Inkscape (http://www.inkscape.org/) -->

<svg
   version="1.1"
   id="svg1"
   width="3000"
   height="3000"
   viewBox="0 0 3000 3000"
   sodipodi:docname="onlyFunnyFace.svg"
   inkscape:version="1.3 (0e150ed6c4, 2023-07-21)"
   xmlns:inkscape="http://www.inkscape.org/namespaces/inkscape"
   xmlns:sodipodi="http://sodipodi.sourceforge.net/DTD/sodipodi-0.dtd"
   xmlns="http://www.w3.org/2000/svg"
   xmlns:svg="http://www.w3.org/2000/svg">
  <defs
     id="defs1">
    <clipPath
       clipPathUnits="userSpaceOnUse"
       id="clipPath3">
      <ellipse
         style="opacity:0.55;fill:#4d4d4d;stroke-width:1.00303"
         id="ellipse3"
         cx="919.75806"
         cy="1459.5835"
         rx="75.665428"
         ry="133.15228" />
    </clipPath>
    <clipPath
       clipPathUnits="userSpaceOnUse"
       id="clipPath3-3">
      <ellipse
         style="opacity:0.55;fill:#4d4d4d;stroke-width:1.00303"
         id="ellipse3-4"
         cx="919.75806"
         cy="1459.5835"
         rx="75.665428"
         ry="133.15228" />
    </clipPath>
  </defs>
  <sodipodi:namedview
     id="namedview1"
     pagecolor="#505050"
     bordercolor="#ffffff"
     borderopacity="1"
     inkscape:showpageshadow="0"
     inkscape:pageopacity="0"
     inkscape:pagecheckerboard="1"
     inkscape:deskcolor="#505050"
     inkscape:zoom="0.13683334"
     inkscape:cx="-1081.6078"
     inkscape:cy="1574.9086"
     inkscape:window-width="1920"
     inkscape:window-height="1017"
     inkscape:window-x="-8"
     inkscape:window-y="-8"
     inkscape:window-maximized="1"
     inkscape:current-layer="g1" />
  <g
     inkscape:groupmode="layer"
     inkscape:label="Image"
     id="g1">
    <g
       id="g2">
      <ellipse
         style="fill:#000000;stroke-width:1.49942"
         id="path1"
         cx="1501.4377"
         cy="1501.2635"
         rx="1481.6794"
         ry="1460.6418" />
      <ellipse
         style="fill:#ffd42a;stroke-width:1.41251"
         id="path1-0"
         cx="1509.2897"
         cy="1498.4625"
         rx="1406.9281"
         ry="1365.0858" />
      <ellipse
         style="fill:#000000;stroke-width:1.60639"
         id="path4-2"
         cx="1894.0923"
         cy="1116.3295"
         rx="130.81496"
         ry="248.44565" />
      <ellipse
         style="fill:#000000;stroke-width:1.60639"
         id="path4-2-9"
         cx="1066.3877"
         cy="1110.7656"
         rx="130.81496"
         ry="248.44565" />
      <path
         style="fill:#f9f9f9;stroke-width:1.47767"
         d="m 2173.1211,2593.5153 37.3758,-19.1111 52.059,-30.7144 43.3825,-26.6193 46.7197,-34.1271 42.0477,-34.1272 38.7105,-33.4445 34.706,-32.7621 26.0294,-28.6668 28.0318,-31.397 29.3667,-34.1271 14.6833,-18.4287 6.2493,-2.8686 6.2531,-0.724 h 5.4274 l 4.3654,1.6892 3.6575,2.5339 4.6015,4.9469 2.1237,3.7404 1.2977,4.1024 0.5901,4.8263 -0.236,6.3948 -2.2418,5.309 -6.0171,9.0492 -11.0906,13.3931 -15.9813,19.2744 -29.033,34.8098 -16.6855,17.0635 -22.025,22.5238 -35.7071,35.4924 -34.3724,30.0318 -44.3836,35.4922 -33.7049,25.2541 -43.7162,29.6906 -38.3768,23.5477 -31.7026,16.7225 -33.3712,17.0635 -22.6923,11.2619 -7.5967,-0.2953 -5.8992,-0.6032 -3.6576,-1.7496 -3.0086,-2.5941 -2.8316,-2.9562 -2.5957,-3.9214 -1.5928,-3.9212 -0.177,-4.1025 0.1184,-4.2229 0.1769,-3.4991 0.9438,-2.4132 2.5368,-4.8263 2.9496,-3.861 3.4805,-2.5338 6.3712,-3.3785 z"
         id="path9-1" />
      <path
         style="fill:#f9f9f9;stroke-width:1.47767"
         d="m 841.36127,371.82828 12.74235,-5.55033 10.61863,-4.82634 6.37117,-3.37835 h 5.66322 l 6.84315,1.20651 5.66337,2.6545 5.66322,7.23951 2.12372,7.72201 v 9.17001 l -2.35971,5.79166 -4.01146,6.03285 -6.37118,3.61967 -6.60716,2.89584 -11.32659,5.06766 -49.55364,24.85552 -22.1812,12.06569 -30.67595,17.85735 -28.08041,17.37469 -18.16973,11.82451 -24.06894,18.09868 -16.9898,12.06569 -15.33805,12.30717 -13.45031,9.65252 -8.25892,7.23951 -23.12499,19.06386 -25.48471,23.16635 -25.72069,23.40753 -14.15827,14.72019 -10.38264,11.10051 -7.55096,7.48083 -7.07914,6.99817 -5.19139,5.79152 -13.45031,15.44418 -11.79841,13.27235 -14.15827,17.13335 -9.91067,11.58318 -4.01146,5.55018 -26.90062,35.95603 -19.82134,28.4752 -14.39426,20.99452 -8.96687,14.47885 -8.25892,12.78969 -9.91067,16.89217 -17.22579,30.64704 -8.96687,15.68551 -8.25892,16.89203 -8.25891,15.92684 -3.77563,7.96335 -7.25258,4.6388 -5.67315,1.19441 -6.25706,0.3413 -5.25598,-0.68261 -3.42055,-1.877 -3.75429,-2.81544 -2.41933,-3.15674 -2.41948,-3.41271 -1.66856,-3.49804 -0.41703,-4.69245 -0.16687,-3.92466 0.50047,-3.75402 c 0,0 1.00122,-2.64479 1.33496,-3.15674 0.3336,-0.51195 2.75307,-5.97217 2.75307,-5.97217 l 2.66964,-6.05765 3.17024,-6.56946 4.92239,-8.87308 3.58727,-6.48413 17.35306,-31.99416 11.59647,-19.28188 24.69463,-42.48828 21.69126,-31.73833 19.02162,-27.98417 23.35981,-29.34937 26.02944,-32.42079 26.0296,-30.71443 31.03512,-33.10324 23.69355,-23.54784 14.34954,-13.99201 30.36778,-27.30172 26.69693,-22.52394 24.69478,-19.45253 23.35981,-18.42863 23.02607,-17.06357 28.36549,-18.76993 24.69462,-16.03982 22.35874,-12.96825 26.36319,-15.35722 20.69003,-10.57944 17.35306,-8.87309 14.34954,-7.16673 z"
         id="path10-5" />
      <path
         style="fill:#000000"
         d="m 674.17782,1969.5492 25.57856,16.4434 39.28137,25.5786 20.09744,11.8757 25.57856,16.4434 21.01096,10.0487 24.66504,13.7028 18.2704,9.1352 26.49209,12.7893 63.03288,28.3191 42.93545,17.3569 51.15713,18.2704 79.4762,23.7515 70.3411,16.4434 65.7734,13.7028 73.0816,11.8757 72.1681,6.3947 70.3411,0.9135 h 91.352 l 42.0219,-1.827 50.2436,-5.4812 66.687,-9.1352 68.514,-11.8757 66.6869,-15.5299 67.6005,-17.3568 75.8222,-27.4056 89.525,-36.5408 48.4165,-22.838 79.4763,-41.1084 67.6005,-42.022 46.5895,-31.9732 49.3301,-38.3678 56.6382,-44.7625 57.5518,-50.2436 10.8599,-4.4974 9.0434,-1.2919 8.3974,3.2298 5.8136,5.1676 5.8137,5.1677 7.1055,7.1055 4.5217,6.4595 3.2297,7.7515 2.5839,5.1677 v 7.1055 l -1.2919,7.7515 -3.2298,5.8136 -3.8758,6.4595 -7.7514,9.0434 -9.6894,9.6894 -37.4654,34.2356 -36.1736,29.714 -51.6765,43.925 -40.0493,28.4221 -49.0927,37.4655 -60.7198,36.1735 -56.8442,29.714 -56.8441,31.0059 -52.9685,23.2544 -45.2169,20.6706 -65.8875,21.9626 -83.9743,27.1301 -86.5582,20.6706 -86.5581,15.503 -76.2228,9.0434 -76.2229,6.4595 -86.5581,2.5838 -82.6824,-3.8757 -80.0986,-6.4596 -114.1746,-17.2584 -98.6601,-23.7515 -116.93061,-36.5408 -109.62241,-40.1949 -93.17905,-51.1571 -115.10353,-67.6005 -89.52497,-60.2923 -80.38977,-65.7735 -2.2838,-14.1595 1.82704,-8.2217 2.74056,-6.8514 4.5676,-8.6784 3.19732,-5.4812 4.11085,-5.0243 5.93788,-6.8514 6.8514,-5.0244 7.30816,-2.2838 6.39464,-1.3703 9.1352,-2.2838 h 7.30816 l 6.39464,-0.4567 6.8514,2.7405 7.30816,3.1974 6.8514,3.654 15.9866,12.3326 12.33252,10.0487 15.07309,12.3325 13.7028,10.0487 16.90012,12.7893 11.419,8.6784 z"
         id="path2" />
    </g>
  </g>
</svg>
