<?xml version="1.0" encoding="UTF-8" standalone="no"?>
<svg
   width="800px"
   height="800px"
   viewBox="0 0 28 28"
   version="1.1"
   id="svg1"
   sodipodi:docname="sharescreenIcon.svg"
   inkscape:version="1.3 (0e150ed6c4, 2023-07-21)"
   xmlns:inkscape="http://www.inkscape.org/namespaces/inkscape"
   xmlns:sodipodi="http://sodipodi.sourceforge.net/DTD/sodipodi-0.dtd"
   xmlns="http://www.w3.org/2000/svg"
   xmlns:svg="http://www.w3.org/2000/svg"
   xmlns:rdf="http://www.w3.org/1999/02/22-rdf-syntax-ns#"
   xmlns:cc="http://creativecommons.org/ns#"
   xmlns:dc="http://purl.org/dc/elements/1.1/">
  <defs
     id="defs1" />
  <sodipodi:namedview
     id="namedview1"
     pagecolor="#505050"
     bordercolor="#ffffff"
     borderopacity="1"
     inkscape:showpageshadow="0"
     inkscape:pageopacity="0"
     inkscape:pagecheckerboard="1"
     inkscape:deskcolor="#505050"
     inkscape:zoom="1.02625"
     inkscape:cx="400"
     inkscape:cy="400"
     inkscape:window-width="1920"
     inkscape:window-height="1017"
     inkscape:window-x="-8"
     inkscape:window-y="-8"
     inkscape:window-maximized="1"
     inkscape:current-layer="svg1" />
  <!-- Uploaded to: SVG Repo, www.svgrepo.com, Generator: SVG Repo Mixer Tools -->
  <title
     id="title1">ic_fluent_share_screen_28_regular</title>
  <desc
     id="desc1">Created with Sketch.</desc>
  <g
     id="ðŸ”-System-Icons"
     stroke="none"
     stroke-width="1"
     fill="none"
     fill-rule="evenodd"
     style="fill:#f9f9f9">
    <g
       id="ic_fluent_share_screen_28_regular"
       fill="#212121"
       fill-rule="nonzero"
       style="fill:#f9f9f9">
      <path
         d="M23.75,4.99939 C24.9926,4.99939 26,6.00675 26,7.24939 L26,20.75 C26,21.9926 24.9926,23 23.75,23 L4.25,23 C3.00736,23 2,21.9927 2,20.75 L2,7.24939 C2,6.00675 3.00736,4.99939 4.25,4.99939 L23.75,4.99939 Z M23.75,6.49939 L4.25,6.49939 C3.83579,6.49939 3.5,6.83518 3.5,7.24939 L3.5,20.75 C3.5,21.1642 3.83579,21.5 4.25,21.5 L23.75,21.5 C24.1642,21.5 24.5,21.1642 24.5,20.75 L24.5,7.24939 C24.5,6.83518 24.1642,6.49939 23.75,6.49939 Z M13.9975,8.62102995 C14.1965,8.62102995 14.3874,8.69998 14.5281,8.8407 L17.7826,12.0952 C18.0755,12.3881 18.0755,12.863 17.7826,13.1559 C17.4897,13.4488 17.0148,13.4488 16.7219,13.1559 L14.7477,11.1817 L14.7477,18.6284 C14.7477,19.0426 14.412,19.3784 13.9977,19.3784 C13.5835,19.3784 13.2477,19.0426 13.2477,18.6284 L13.2477,11.1835 L11.2784,13.1555 C10.9858,13.4486 10.5109,13.4489 10.2178,13.1562 C9.92469,12.8636 9.92436,12.3887 10.217,12.0956 L13.467,8.84107 C13.6077,8.70025 13.7985,8.62102995 13.9975,8.62102995 Z"
         id="ðŸŽ¨-Color"
         style="fill:#f9f9f9" />
    </g>
  </g>
  <metadata
     id="metadata1">
    <rdf:RDF>
      <cc:Work
         rdf:about="">
        <dc:title>ic_fluent_share_screen_28_regular</dc:title>
      </cc:Work>
    </rdf:RDF>
  </metadata>
</svg>
